<svg xmlns="http://www.w3.org/2000/svg" xmlns:xlink="http://www.w3.org/1999/xlink" width="529" zoomAndPan="magnify" viewBox="0 0 396.75 396.749985" height="529" preserveAspectRatio="xMidYMid meet" version="1.0"><defs><g/><clipPath id="6ea1e0355c"><path d="M 0 0 L 396.5 0 L 396.5 396.5 L 0 396.5 Z M 0 0 " clip-rule="nonzero"/></clipPath><clipPath id="c0c91addbf"><rect x="0" width="130" y="0" height="340"/></clipPath></defs><g clip-path="url(#6ea1e0355c)"><path fill="#ffffff" d="M 0 0 L 396.5 0 L 396.5 396.5 L 0 396.5 Z M 0 0 " fill-opacity="1" fill-rule="nonzero"/><path fill="#ffffff" d="M 0 0 L 396.5 0 L 396.5 396.5 L 0 396.5 Z M 0 0 " fill-opacity="1" fill-rule="nonzero"/></g><g transform="matrix(1, 0, 0, 1, 129, 27)"><g clip-path="url(#c0c91addbf)"><g fill="#000000" fill-opacity="1"><g transform="translate(0.424987, 254.449884)"><g><path d="M 95.957031 -199.6875 C 91.902344 -201.375 86.160156 -199.6875 84.46875 -199.011719 C 68.589844 -189.886719 41.558594 -187.523438 25.679688 -189.886719 C 25.003906 -184.820312 23.3125 -178.398438 25.003906 -176.035156 C 32.4375 -170.964844 46.628906 -178.398438 53.046875 -169.953125 C 56.425781 -164.207031 53.046875 -147.652344 52.371094 -139.542969 C 50.683594 -127.042969 49.667969 -113.863281 48.992188 -106.429688 C 46.628906 -81.089844 46.628906 -57.777344 39.871094 -44.601562 C 30.746094 -42.234375 23.3125 -44.601562 13.515625 -45.277344 C 12.5 -40.546875 11.824219 -36.492188 11.824219 -31.421875 C 41.558594 -27.367188 74.671875 -24.664062 108.457031 -21.625 C 109.132812 -24.664062 110.148438 -29.734375 110.148438 -35.476562 C 101.027344 -37.84375 86.835938 -35.476562 82.78125 -42.234375 C 83.457031 -95.621094 92.578125 -150.355469 95.957031 -199.6875 Z M 124 -89.199219 C 118.257812 -84.132812 119.269531 -71.96875 118.257812 -65.210938 C 120.621094 -63.519531 122.3125 -63.519531 125.691406 -64.535156 C 124 -71.96875 127.378906 -83.457031 124 -89.199219 Z M 71.628906 -214.214844 C 64.195312 -213.539062 57.4375 -214.214844 51.019531 -214.214844 C 51.019531 -212.863281 50.007812 -211.171875 50.007812 -211.171875 C 51.695312 -209.484375 61.492188 -210.160156 55.75 -207.796875 C 61.492188 -206.78125 66.5625 -207.796875 71.628906 -209.484375 C 71.628906 -211.171875 71.628906 -212.863281 71.628906 -214.214844 Z M 116.90625 -10.8125 C 89.539062 -9.121094 62.167969 -1.011719 38.179688 -5.066406 C 35.816406 -5.066406 35.140625 -1.011719 30.746094 -1.6875 C 26.691406 -4.054688 20.949219 -9.121094 15.878906 -8.109375 C 15.203125 -5.742188 13.515625 -4.054688 14.191406 -1.6875 C 17.570312 -1.6875 20.949219 -3.378906 23.3125 -1.011719 C 22.636719 1.6875 16.894531 -1.011719 18.582031 2.363281 C 51.359375 -1.011719 85.484375 -4.054688 116.90625 -10.8125 Z M 116.90625 -10.8125 "/></g></g></g></g></g></svg>