<svg xmlns="http://www.w3.org/2000/svg" xmlns:xlink="http://www.w3.org/1999/xlink" width="529" zoomAndPan="magnify" viewBox="0 0 396.75 396.749985" height="529" preserveAspectRatio="xMidYMid meet" version="1.0"><defs><g/><clipPath id="c65a073b9b"><rect x="0" width="168" y="0" height="340"/></clipPath></defs><g transform="matrix(1, 0, 0, 1, 108, 27)"><g clip-path="url(#c65a073b9b)"><g fill="#000000" fill-opacity="1"><g transform="translate(0.658196, 254.449884)"><g><path d="M 141.910156 -188.535156 C 141.234375 -189.210938 141.234375 -188.535156 140.558594 -188.535156 C 102.378906 -186.507812 57.777344 -186.507812 16.554688 -184.144531 C 22.636719 -125.691406 29.058594 -69.601562 35.140625 -10.8125 C 62.167969 -12.839844 91.902344 -14.867188 120.960938 -16.21875 C 127.378906 -16.554688 145.625 -16.554688 147.652344 -19.257812 C 150.019531 -22.300781 149.679688 -33.449219 149.679688 -39.195312 C 149.679688 -45.953125 150.019531 -53.722656 150.355469 -60.140625 C 151.03125 -75.347656 149.34375 -89.875 148.667969 -103.730469 C 147.992188 -118.257812 147.316406 -133.125 146.300781 -146.976562 C 145.289062 -157.789062 144.273438 -168.9375 143.9375 -179.074219 C 143.9375 -182.117188 145.289062 -186.507812 141.910156 -188.535156 Z M 102.714844 -81.429688 C 91.226562 -68.25 79.738281 -57.101562 68.589844 -44.9375 C 89.539062 -46.289062 111.835938 -47.304688 131.097656 -48.65625 C 130.757812 -41.898438 128.730469 -33.449219 126.703125 -26.355469 C 126.027344 -25.679688 124 -26.015625 122.648438 -26.015625 C 122.648438 -29.734375 124 -32.4375 122.648438 -35.140625 C 112.511719 -36.492188 101.027344 -35.140625 89.539062 -34.464844 C 78.386719 -33.789062 66.5625 -33.113281 56.085938 -32.4375 C 54.398438 -38.519531 56.085938 -38.855469 60.140625 -42.910156 C 71.292969 -53.382812 82.105469 -66.222656 90.890625 -78.050781 C 102.039062 -93.253906 112.511719 -109.808594 112.511719 -128.394531 C 112.175781 -143.261719 106.429688 -157.789062 92.578125 -161.167969 C 74.671875 -165.558594 62.507812 -154.074219 60.480469 -142.585938 C 58.453125 -130.757812 65.886719 -125.015625 72.644531 -119.945312 C 70.617188 -116.566406 68.25 -111.835938 64.195312 -111.5 C 57.777344 -111.160156 52.707031 -122.988281 51.695312 -128.394531 C 47.640625 -150.019531 66.898438 -165.558594 86.496094 -167.25 C 112.175781 -169.277344 130.421875 -152.046875 128.394531 -126.367188 C 126.703125 -107.105469 112.511719 -92.917969 102.714844 -81.429688 Z M 92.242188 -236.515625 C 92.242188 -229.757812 90.214844 -220.972656 90.890625 -213.875 C 91.566406 -220.632812 92.578125 -229.417969 92.242188 -236.515625 Z M 92.242188 -236.515625 "/></g></g></g></g></g></svg>