<svg xmlns="http://www.w3.org/2000/svg" xmlns:xlink="http://www.w3.org/1999/xlink" width="529" zoomAndPan="magnify" viewBox="0 0 396.75 396.749985" height="529" preserveAspectRatio="xMidYMid meet" version="1.0"><defs><g/><clipPath id="2498880ca8"><rect x="0" width="151" y="0" height="340"/></clipPath></defs><g transform="matrix(1, 0, 0, 1, 120, 27)"><g clip-path="url(#2498880ca8)"><g fill="#000000" fill-opacity="1"><g transform="translate(0.309874, 254.449884)"><g><path d="M 142.921875 -231.109375 C 143.597656 -203.402344 144.273438 -177.386719 144.949219 -153.398438 C 146.640625 -170.964844 145.964844 -193.941406 146.640625 -212.523438 C 146.640625 -218.945312 148.328125 -226.714844 144.273438 -231.109375 C 143.597656 -231.109375 143.597656 -231.109375 142.921875 -231.109375 Z M 143.597656 -33.449219 C 142.921875 -31.085938 142.585938 -29.058594 143.597656 -26.691406 C 143.261719 -29.058594 144.949219 -32.4375 143.597656 -33.449219 Z M 143.597656 -25.339844 C 143.261719 -22.300781 142.921875 -19.933594 142.585938 -18.582031 C 142.921875 -6.082031 145.289062 -25.003906 143.597656 -25.339844 Z M 47.304688 -109.132812 C 46.628906 -103.390625 49.332031 -93.929688 46.964844 -87.511719 C 47.640625 -87.511719 48.316406 -86.835938 48.316406 -85.144531 C 61.492188 -82.78125 74.671875 -87.511719 80.753906 -74.671875 C 81.089844 -73.65625 82.105469 -69.941406 82.105469 -69.265625 C 82.78125 -61.832031 74.671875 -49.332031 63.519531 -51.359375 C 62.84375 -51.359375 63.859375 -52.707031 63.183594 -52.707031 C 48.992188 -53.046875 38.179688 -58.789062 29.058594 -65.886719 C 19.257812 -53.382812 13.515625 -43.585938 6.082031 -31.085938 C 12.5 -28.042969 24.664062 -18.582031 34.800781 -15.203125 C 34.800781 -15.203125 35.140625 -17.230469 35.816406 -16.554688 C 50.683594 -9.121094 77.710938 -10.8125 91.226562 -14.527344 C 99.335938 -17.90625 107.445312 -23.652344 114.539062 -28.042969 C 115.214844 -31.761719 118.933594 -33.789062 121.636719 -37.84375 C 129.070312 -50.34375 128.394531 -71.292969 124 -81.765625 C 120.960938 -87.847656 113.863281 -96.296875 105.753906 -101.363281 C 112.175781 -108.121094 120.285156 -113.527344 121.636719 -126.027344 C 122.3125 -125.691406 121.972656 -124 122.988281 -125.691406 C 122.648438 -139.542969 120.285156 -153.058594 111.5 -162.179688 C 93.253906 -181.777344 52.035156 -182.117188 31.761719 -168.9375 C 23.652344 -164.207031 13.515625 -159.816406 8.445312 -151.707031 C 16.894531 -143.261719 24.664062 -131.773438 32.773438 -125.015625 C 40.546875 -132.109375 58.453125 -145.964844 71.292969 -136.839844 C 73.996094 -135.152344 77.035156 -129.40625 77.375 -125.015625 C 77.375 -125.015625 76.023438 -125.015625 76.023438 -124.339844 C 76.023438 -120.621094 75.007812 -121.296875 74.671875 -119.269531 C 74.671875 -119.269531 76.023438 -118.59375 75.683594 -117.582031 C 71.292969 -109.808594 57.777344 -109.472656 47.304688 -109.132812 Z M 144.273438 -108.457031 C 143.261719 -99.675781 143.9375 -92.242188 144.273438 -87.847656 C 144.273438 -88.523438 144.273438 -82.78125 144.273438 -82.78125 C 148.328125 -85.484375 142.585938 -105.753906 144.273438 -108.457031 Z M 143.9375 -68.25 C 144.949219 -61.492188 142.246094 -53.046875 144.949219 -49.667969 C 144.273438 -54.734375 145.289062 -65.210938 143.9375 -68.25 Z M 143.597656 -45.277344 C 143.9375 -42.234375 142.921875 -37.84375 143.9375 -35.476562 C 144.273438 -39.195312 144.949219 -42.910156 143.597656 -45.277344 Z M 142.585938 -12.5 C 143.597656 -5.066406 141.234375 8.785156 142.921875 17.230469 C 142.585938 7.769531 144.613281 -4.054688 142.585938 -12.5 Z M 142.246094 18.921875 C 141.910156 27.707031 139.542969 39.195312 141.570312 43.25 C 142.585938 35.140625 143.261719 23.3125 142.246094 18.921875 Z M 142.246094 18.921875 "/></g></g></g></g></g></svg>