<svg xmlns="http://www.w3.org/2000/svg" xmlns:xlink="http://www.w3.org/1999/xlink" width="529" zoomAndPan="magnify" viewBox="0 0 396.75 396.749985" height="529" preserveAspectRatio="xMidYMid meet" version="1.0"><defs><g/><clipPath id="a3d5191e2d"><rect x="0" width="186" y="0" height="340"/></clipPath></defs><g transform="matrix(1, 0, 0, 1, 99, 27)"><g clip-path="url(#a3d5191e2d)"><g fill="#000000" fill-opacity="1"><g transform="translate(0.873044, 254.449884)"><g><path d="M 82.441406 -151.371094 C 77.375 -144.273438 75.007812 -137.855469 70.617188 -132.785156 C 75.347656 -131.773438 80.078125 -133.125 82.441406 -135.828125 C 82.441406 -141.910156 83.117188 -146.640625 82.441406 -151.371094 Z M 168.601562 -36.828125 C 170.628906 -36.828125 169.613281 -38.519531 169.613281 -38.855469 C 169.613281 -40.882812 173.332031 -43.585938 171.640625 -46.628906 C 169.613281 -44.601562 170.289062 -40.546875 168.601562 -36.828125 Z M 125.691406 -220.632812 C 112.511719 -219.957031 95.28125 -219.621094 80.753906 -220.972656 C 80.753906 -220.632812 80.753906 -219.621094 80.078125 -219.621094 C 74.332031 -222.660156 72.304688 -216.917969 69.941406 -212.863281 C 66.898438 -208.472656 62.507812 -204.078125 62.507812 -200.699219 C 61.15625 -201.375 61.492188 -199.6875 60.480469 -199.6875 C 60.480469 -199.011719 59.804688 -197.996094 59.804688 -196.984375 C 55.75 -193.941406 54.398438 -188.535156 50.34375 -183.128906 C 50.007812 -182.453125 48.992188 -182.453125 48.65625 -181.441406 C 46.964844 -179.75 45.953125 -176.035156 45.613281 -175.359375 C 42.910156 -171.980469 40.882812 -168.601562 38.855469 -165.558594 C 38.855469 -165.222656 37.503906 -165.558594 37.503906 -165.222656 C 36.492188 -162.855469 35.816406 -161.167969 34.464844 -159.140625 C 33.113281 -156.777344 30.410156 -155.085938 30.070312 -153.398438 C 29.058594 -153.058594 30.070312 -151.371094 29.058594 -150.695312 C 27.367188 -147.316406 23.652344 -145.289062 22.300781 -142.246094 C 21.285156 -139.542969 20.609375 -137.855469 21.960938 -134.8125 C 19.597656 -133.460938 20.609375 -130.082031 21.285156 -128.394531 C 19.257812 -127.042969 21.285156 -127.042969 21.285156 -128.054688 C 20.949219 -125.351562 16.554688 -117.582031 20.949219 -115.554688 C 16.21875 -115.890625 21.285156 -112.511719 17.90625 -111.160156 C 17.90625 -110.148438 18.921875 -109.472656 18.921875 -108.457031 C 18.246094 -108.796875 17.570312 -108.796875 17.570312 -108.457031 C 17.230469 -103.390625 15.878906 -95.957031 13.515625 -89.875 C 13.515625 -88.863281 14.867188 -88.863281 14.527344 -88.1875 C 11.148438 -87.171875 14.867188 -82.105469 13.175781 -82.441406 C 20.949219 -81.765625 25.003906 -81.765625 32.097656 -82.441406 C 49.667969 -81.089844 65.210938 -82.441406 82.78125 -82.105469 C 84.132812 -71.292969 83.117188 -60.816406 83.117188 -49.332031 C 103.054688 -48.65625 122.3125 -48.65625 140.21875 -49.332031 C 140.21875 -61.492188 139.542969 -73.320312 140.894531 -83.117188 C 145.625 -82.441406 152.382812 -82.441406 157.789062 -83.117188 C 158.464844 -88.1875 157.789062 -92.578125 157.789062 -99 C 156.777344 -99.335938 156.4375 -97.648438 155.761719 -99 C 156.777344 -99 156.777344 -99.335938 157.789062 -99.335938 C 157.789062 -102.378906 158.800781 -104.066406 156.777344 -106.429688 C 157.789062 -107.445312 159.816406 -108.457031 158.464844 -109.808594 C 158.464844 -109.472656 158.464844 -108.796875 158.125 -108.796875 C 157.113281 -116.230469 158.125 -119.269531 157.789062 -128.054688 C 151.707031 -128.394531 145.964844 -127.378906 139.882812 -128.054688 C 139.882812 -136.503906 139.542969 -145.625 139.882812 -153.398438 C 140.21875 -153.734375 141.234375 -152.046875 141.234375 -153.734375 C 140.894531 -154.75 140.894531 -153.734375 139.542969 -154.410156 C 140.21875 -156.777344 140.894531 -162.179688 139.207031 -165.898438 C 141.234375 -176.035156 137.855469 -186.171875 140.21875 -196.644531 C 139.542969 -198.335938 139.207031 -201.375 139.882812 -202.726562 C 139.207031 -202.726562 137.179688 -202.726562 137.855469 -203.742188 C 138.191406 -203.066406 139.207031 -203.066406 139.542969 -203.066406 C 139.207031 -206.105469 140.894531 -210.496094 138.191406 -211.847656 C 141.234375 -211.847656 139.207031 -217.929688 139.542969 -219.957031 C 134.136719 -220.972656 126.367188 -219.28125 125.691406 -220.632812 Z M 135.152344 -206.78125 C 135.488281 -206.78125 136.503906 -206.105469 136.503906 -206.78125 C 136.839844 -205.429688 136.164062 -205.429688 136.503906 -203.742188 C 136.164062 -203.742188 135.488281 -204.078125 135.152344 -204.078125 C 135.488281 -204.753906 135.152344 -205.429688 135.152344 -206.78125 Z M 119.609375 -204.753906 C 120.960938 -206.105469 122.988281 -204.078125 124 -205.769531 C 124.675781 -206.105469 123.324219 -203.742188 121.636719 -203.066406 C 121.296875 -204.753906 121.636719 -204.417969 119.609375 -204.753906 Z M 133.460938 -202.390625 C 133.800781 -203.066406 133.460938 -203.742188 133.460938 -204.078125 C 134.136719 -204.078125 134.136719 -203.742188 133.800781 -203.742188 C 133.800781 -202.726562 134.8125 -202.726562 135.488281 -202.390625 C 135.488281 -201.375 133.800781 -202.390625 133.460938 -202.390625 Z M 93.59375 -207.121094 C 92.917969 -208.472656 95.28125 -207.457031 93.929688 -208.472656 C 94.945312 -209.144531 96.296875 -207.796875 95.28125 -206.78125 C 94.945312 -206.78125 94.605469 -207.121094 93.59375 -207.121094 Z M 130.757812 -194.957031 C 130.421875 -193.941406 127.378906 -195.292969 127.71875 -196.644531 C 130.082031 -196.644531 128.730469 -194.617188 130.757812 -194.957031 Z M 67.238281 -197.996094 C 66.5625 -197.996094 67.574219 -199.347656 66.5625 -199.6875 C 67.574219 -199.6875 67.574219 -200.023438 70.277344 -200.023438 C 68.925781 -199.347656 68.25 -198.335938 67.238281 -197.996094 Z M 87.171875 -189.886719 C 88.1875 -188.875 88.1875 -190.226562 89.875 -189.886719 C 89.199219 -188.199219 87.511719 -188.875 86.835938 -188.535156 C 86.835938 -188.875 87.171875 -189.210938 87.171875 -189.886719 Z M 64.535156 -188.875 C 65.886719 -190.226562 64.535156 -189.210938 64.195312 -191.238281 C 65.210938 -191.914062 67.574219 -188.199219 64.535156 -188.875 Z M 96.632812 -183.128906 C 96.632812 -183.804688 96.296875 -184.480469 95.28125 -184.480469 C 95.28125 -185.496094 96.972656 -184.144531 97.984375 -184.480469 C 97.984375 -183.804688 96.632812 -184.480469 96.632812 -183.128906 Z M 84.46875 -176.035156 C 85.144531 -176.371094 85.484375 -177.386719 85.820312 -178.0625 C 86.835938 -178.0625 87.171875 -178.0625 88.1875 -177.722656 C 85.484375 -177.386719 86.835938 -176.035156 84.46875 -176.035156 Z M 107.445312 -170.289062 C 107.78125 -170.628906 108.457031 -170.628906 108.796875 -171.640625 C 109.808594 -171.640625 110.824219 -171.640625 110.148438 -170.289062 C 109.808594 -170.289062 109.808594 -170.289062 110.148438 -170.628906 C 109.132812 -170.628906 108.796875 -169.953125 107.445312 -170.289062 Z M 136.503906 -157.449219 C 136.839844 -157.789062 137.179688 -159.140625 138.191406 -158.800781 C 138.191406 -157.789062 137.179688 -158.125 137.855469 -156.777344 C 137.179688 -156.777344 137.179688 -156.777344 136.839844 -156.777344 C 136.839844 -157.449219 136.839844 -157.449219 136.503906 -157.449219 Z M 74.332031 -144.273438 C 77.710938 -148.328125 85.144531 -160.828125 87.511719 -167.25 C 88.863281 -166.910156 88.863281 -165.898438 90.214844 -165.898438 C 89.199219 -165.222656 89.199219 -165.898438 88.863281 -165.898438 C 85.484375 -151.371094 88.863281 -139.542969 87.171875 -126.703125 C 86.160156 -127.378906 85.820312 -127.378906 84.46875 -127.378906 C 84.46875 -126.703125 85.144531 -126.703125 85.144531 -125.691406 C 78.386719 -129.070312 71.292969 -126.367188 63.859375 -127.042969 C 63.859375 -127.378906 64.535156 -127.042969 65.210938 -127.042969 C 66.898438 -132.109375 69.941406 -136.164062 72.980469 -140.558594 C 72.980469 -140.894531 71.628906 -141.234375 72.304688 -142.585938 C 72.980469 -139.882812 76.023438 -142.585938 74.332031 -144.273438 Z M 100.011719 -159.816406 C 100.011719 -161.167969 97.984375 -161.167969 98.324219 -162.855469 C 99.675781 -162.855469 99.675781 -161.167969 101.363281 -161.503906 C 101.703125 -159.816406 100.6875 -160.492188 100.011719 -159.816406 Z M 93.929688 -146.640625 C 95.28125 -147.316406 96.296875 -146.976562 97.984375 -146.976562 C 97.648438 -145.625 95.28125 -146.640625 93.929688 -146.640625 Z M 102.714844 -143.9375 C 102.714844 -144.273438 102.714844 -144.273438 102.378906 -144.949219 C 102.378906 -145.625 103.054688 -143.9375 104.40625 -144.273438 C 104.066406 -142.921875 102.378906 -143.597656 101.027344 -143.9375 C 101.363281 -144.273438 102.378906 -144.273438 102.714844 -143.9375 Z M 96.296875 -143.597656 C 98.324219 -141.910156 97.648438 -143.597656 100.6875 -142.585938 C 100.011719 -142.921875 99.675781 -143.9375 99 -143.9375 C 99.675781 -145.289062 100.6875 -143.597656 101.363281 -143.597656 C 100.6875 -141.910156 99 -142.246094 97.648438 -140.894531 C 96.632812 -141.234375 96.972656 -142.585938 95.957031 -142.246094 C 95.957031 -142.585938 95.957031 -142.585938 96.296875 -142.585938 C 96.296875 -142.921875 96.296875 -142.921875 96.296875 -143.597656 Z M 66.5625 -137.179688 C 67.238281 -138.191406 67.574219 -136.503906 68.925781 -137.179688 C 68.589844 -135.828125 67.238281 -136.503906 66.5625 -137.179688 Z M 29.058594 -142.246094 C 29.734375 -142.921875 30.410156 -142.921875 31.761719 -142.246094 C 31.085938 -140.894531 30.410156 -141.910156 29.058594 -142.246094 Z M 71.628906 -104.066406 C 72.980469 -103.730469 73.320312 -104.742188 74.332031 -103.730469 C 74.332031 -103.390625 74.332031 -103.390625 73.65625 -102.714844 C 72.980469 -102.714844 71.292969 -102.378906 71.628906 -104.066406 Z M 108.796875 -94.269531 C 107.445312 -94.269531 107.445312 -94.605469 107.78125 -95.957031 C 108.457031 -95.957031 108.796875 -95.957031 109.132812 -95.957031 C 107.78125 -94.945312 109.132812 -95.621094 108.796875 -94.269531 Z M 129.40625 -68.589844 C 129.070312 -69.265625 129.070312 -69.601562 129.40625 -70.277344 C 130.757812 -70.277344 130.082031 -68.589844 131.433594 -69.265625 C 130.757812 -68.25 130.421875 -68.25 129.40625 -68.589844 Z M 102.714844 -60.140625 C 102.714844 -60.816406 104.40625 -60.140625 104.40625 -60.816406 C 104.742188 -60.480469 105.417969 -60.480469 105.417969 -59.464844 C 104.40625 -58.789062 104.066406 -59.464844 102.714844 -60.140625 Z M 159.816406 -107.105469 C 160.152344 -107.105469 160.152344 -106.769531 161.167969 -106.429688 C 159.816406 -99.335938 161.167969 -88.863281 160.828125 -79.402344 C 155.085938 -79.402344 149.003906 -79.0625 143.261719 -79.402344 C 142.246094 -66.898438 143.261719 -59.128906 142.585938 -45.613281 C 124 -45.277344 105.417969 -45.277344 84.46875 -45.277344 C 84.132812 -43.25 83.792969 -40.882812 84.46875 -40.207031 C 90.890625 -39.871094 98.324219 -40.882812 104.066406 -39.195312 C 104.066406 -40.882812 108.796875 -40.546875 106.769531 -39.871094 C 109.808594 -40.207031 111.5 -39.871094 113.527344 -37.84375 C 113.863281 -38.855469 112.511719 -40.207031 113.863281 -39.871094 C 118.59375 -40.207031 122.3125 -39.871094 127.378906 -39.871094 C 127.042969 -39.195312 127.042969 -38.519531 127.378906 -37.84375 C 128.730469 -38.519531 128.730469 -38.855469 128.394531 -40.207031 C 130.757812 -40.207031 134.136719 -40.546875 135.152344 -38.519531 C 135.488281 -41.898438 144.949219 -40.207031 145.964844 -38.519531 C 146.976562 -40.207031 147.316406 -40.207031 148.667969 -40.546875 C 147.316406 -41.898438 147.992188 -42.574219 149.003906 -44.601562 C 146.976562 -45.613281 149.34375 -47.980469 148.667969 -50.007812 C 148.667969 -49.667969 149.003906 -49.667969 149.34375 -49.667969 C 149.34375 -57.777344 149.003906 -65.210938 149.34375 -74.332031 C 150.695312 -72.980469 152.382812 -72.644531 153.398438 -74.332031 C 154.074219 -72.980469 154.074219 -72.980469 155.761719 -72.980469 C 157.113281 -73.320312 155.761719 -75.007812 156.777344 -75.007812 C 157.789062 -74.671875 157.789062 -73.996094 159.476562 -73.320312 C 159.476562 -75.007812 161.167969 -74.332031 161.84375 -75.007812 C 161.503906 -74.332031 161.167969 -73.996094 162.519531 -73.320312 C 163.871094 -73.320312 161.503906 -75.683594 163.195312 -75.007812 C 164.546875 -75.007812 165.558594 -72.980469 166.574219 -73.996094 C 165.898438 -76.359375 167.585938 -80.753906 165.898438 -83.117188 C 167.585938 -83.792969 166.234375 -86.496094 165.558594 -87.171875 C 166.574219 -88.523438 166.574219 -92.578125 165.898438 -94.605469 C 167.585938 -94.945312 166.574219 -97.648438 165.558594 -97.984375 C 167.585938 -97.984375 167.25 -101.703125 165.558594 -102.039062 C 167.585938 -102.714844 165.898438 -104.742188 165.558594 -106.429688 C 167.925781 -106.429688 166.234375 -108.457031 165.558594 -109.808594 C 165.898438 -110.484375 166.574219 -109.808594 167.25 -110.484375 C 166.574219 -111.835938 166.234375 -112.511719 165.898438 -112.851562 C 165.898438 -114.539062 166.574219 -113.527344 166.574219 -114.539062 C 167.585938 -115.890625 165.558594 -115.554688 165.558594 -116.566406 C 168.601562 -118.933594 163.871094 -120.621094 166.574219 -122.648438 C 164.546875 -123.664062 165.558594 -125.015625 166.574219 -126.703125 C 164.882812 -129.070312 163.871094 -127.042969 160.828125 -128.054688 C 159.816406 -119.609375 161.503906 -113.1875 160.152344 -107.105469 C 160.152344 -107.105469 159.816406 -107.445312 159.816406 -107.105469 Z M 167.25 -34.125 C 168.601562 -33.789062 165.898438 -31.761719 167.585938 -32.4375 C 167.925781 -32.773438 168.9375 -33.113281 169.277344 -34.125 C 168.9375 -34.464844 167.925781 -34.464844 167.25 -34.125 Z M 44.261719 -21.960938 C 40.882812 -20.609375 36.492188 -20.949219 34.464844 -19.257812 C 37.503906 -20.273438 42.574219 -20.273438 44.261719 -21.960938 Z M 31.421875 -18.582031 C 30.410156 -18.246094 28.042969 -19.257812 27.03125 -18.582031 C 28.71875 -17.570312 29.734375 -17.570312 31.421875 -18.582031 Z M 148.667969 -220.972656 C 147.316406 -219.28125 143.9375 -221.308594 142.585938 -219.621094 C 142.246094 -216.578125 142.246094 -214.890625 142.921875 -212.1875 C 142.585938 -212.1875 142.585938 -211.847656 141.570312 -211.847656 C 143.261719 -199.6875 142.246094 -184.144531 142.246094 -168.9375 C 142.246094 -165.898438 142.921875 -158.125 142.246094 -156.101562 C 141.234375 -153.734375 142.246094 -155.085938 142.585938 -152.722656 C 143.261719 -148.328125 142.246094 -143.9375 142.246094 -140.558594 C 144.613281 -138.191406 140.894531 -134.136719 143.9375 -132.109375 C 143.9375 -132.109375 147.652344 -132.109375 149.003906 -133.125 C 150.355469 -133.460938 147.652344 -141.234375 149.34375 -142.921875 C 149.003906 -144.949219 148.667969 -147.316406 149.34375 -150.019531 C 150.019531 -150.695312 147.652344 -150.695312 148.667969 -152.046875 C 150.019531 -152.722656 150.019531 -154.410156 148.667969 -155.761719 C 149.003906 -162.855469 149.34375 -170.289062 148.667969 -177.722656 C 150.019531 -177.722656 150.019531 -180.765625 148.667969 -181.441406 C 148.667969 -182.117188 149.003906 -182.453125 149.34375 -183.128906 C 147.652344 -191.238281 150.355469 -200.023438 147.992188 -207.796875 C 149.003906 -210.496094 149.34375 -213.199219 147.992188 -214.890625 C 150.019531 -216.578125 149.003906 -219.28125 148.667969 -220.972656 Z M 79.0625 -78.050781 C 59.128906 -80.078125 33.449219 -78.726562 12.5 -78.726562 C 14.191406 -76.359375 11.148438 -72.980469 15.878906 -72.304688 C 17.230469 -74.671875 19.257812 -70.277344 20.609375 -73.320312 C 21.960938 -70.953125 23.652344 -72.980469 25.339844 -73.320312 C 25.339844 -71.292969 28.382812 -72.980469 28.382812 -73.996094 C 28.382812 -71.628906 31.085938 -72.304688 31.761719 -73.320312 C 32.773438 -72.980469 32.097656 -72.304688 34.464844 -72.304688 C 34.800781 -74.332031 35.816406 -73.320312 37.503906 -72.644531 C 38.855469 -72.304688 38.179688 -74.671875 39.53125 -74.332031 C 39.53125 -72.304688 42.574219 -72.644531 42.910156 -73.996094 C 44.261719 -72.304688 45.277344 -72.644531 46.964844 -73.996094 C 49.667969 -71.628906 53.046875 -74.671875 56.085938 -72.644531 C 57.4375 -72.644531 55.75 -73.996094 56.761719 -73.996094 C 58.453125 -74.332031 58.113281 -72.644531 60.480469 -72.644531 C 60.480469 -75.683594 64.195312 -70.953125 64.535156 -73.996094 C 65.546875 -73.320312 65.886719 -72.304688 67.574219 -72.644531 C 67.574219 -75.007812 69.265625 -72.304688 71.292969 -72.644531 C 71.96875 -72.980469 70.617188 -73.996094 72.304688 -73.996094 C 73.320312 -72.980469 72.980469 -72.644531 72.304688 -72.644531 C 74.332031 -72.304688 75.007812 -73.320312 76.023438 -73.996094 C 76.699219 -73.320312 76.359375 -72.644531 78.050781 -72.644531 C 78.386719 -74.671875 78.050781 -75.683594 79.0625 -78.050781 Z M 79.0625 -78.050781 "/></g></g></g></g></g></svg>