<svg xmlns="http://www.w3.org/2000/svg" xmlns:xlink="http://www.w3.org/1999/xlink" width="529" zoomAndPan="magnify" viewBox="0 0 396.75 396.749985" height="529" preserveAspectRatio="xMidYMid meet" version="1.0"><defs><g/><clipPath id="04b2bfc82b"><path d="M 0 0 L 396.5 0 L 396.5 396.5 L 0 396.5 Z M 0 0 " clip-rule="nonzero"/></clipPath><clipPath id="6c8b7e4398"><path d="M 0 0 L 396.398438 0 L 396.398438 396.398438 L 0 396.398438 Z M 0 0 " clip-rule="nonzero"/></clipPath><clipPath id="1db4b8659d"><rect x="0" width="200" y="0" height="340"/></clipPath><clipPath id="5edcfbf206"><rect x="0" width="397" y="0" height="397"/></clipPath></defs><g clip-path="url(#04b2bfc82b)"><path fill="#ffffff" d="M 0 0 L 396.5 0 L 396.5 396.5 L 0 396.5 Z M 0 0 " fill-opacity="1" fill-rule="nonzero"/><g transform="matrix(1, 0, 0, 1, 0, 0)"><g clip-path="url(#5edcfbf206)"><g clip-path="url(#6c8b7e4398)"><path fill="#ffffff" d="M 0 0 L 396.398438 0 L 396.398438 396.398438 L 0 396.398438 Z M 0 0 " fill-opacity="1" fill-rule="nonzero"/></g><g transform="matrix(1, 0, 0, 1, 95, 27)"><g clip-path="url(#1db4b8659d)"><g fill="#000000" fill-opacity="1"><g transform="translate(14.31109, 254.378699)"><g><path d="M -4.730469 -211.796875 C -4.730469 -210.78125 -4.730469 -209.769531 -4.730469 -209.09375 C -8.105469 -147.277344 -9.796875 -94.917969 -10.808594 -33.105469 C -10.808594 -29.050781 -10.808594 -23.644531 -10.808594 -19.59375 C -9.796875 -17.902344 -11.484375 -13.511719 -9.796875 -13.511719 C -9.796875 -15.875 -9.796875 -17.902344 -9.796875 -20.265625 C -11.484375 -83.097656 -2.027344 -145.589844 -3.039062 -210.78125 C -3.039062 -211.796875 -3.714844 -211.796875 -4.730469 -211.796875 Z M 3.039062 -234.765625 C 3.039062 -233.078125 2.363281 -225.308594 4.054688 -227.671875 C 4.054688 -229.699219 4.730469 -237.128906 3.039062 -234.765625 Z M 20.605469 -243.210938 C 13.511719 -200.3125 11.148438 -146.941406 6.753906 -100.664062 C 9.457031 -100.664062 12.835938 -100.664062 15.199219 -100.664062 C 20.605469 -107.417969 21.28125 -114.511719 26.347656 -121.265625 C 45.265625 -148.628906 98.636719 -147.953125 121.605469 -125.660156 C 145.589844 -101.675781 143.898438 -51.683594 127.011719 -24.996094 C 108.09375 3.039062 63.503906 13.511719 32.429688 -7.09375 C 16.890625 -17.566406 11.824219 -35.46875 8.445312 -61.140625 C 5.742188 -61.140625 4.054688 -61.140625 1.6875 -61.140625 C -1.6875 -12.160156 29.050781 10.808594 67.558594 12.5 C 117.550781 15.199219 154.371094 -28.710938 149.304688 -86.8125 C 145.589844 -126.335938 113.835938 -155.722656 64.179688 -150.316406 C 41.886719 -147.953125 26.347656 -134.105469 17.902344 -121.265625 C 21.28125 -155.722656 23.984375 -197.609375 27.359375 -234.429688 C 68.570312 -234.429688 102.011719 -229.359375 137.144531 -229.359375 C 140.523438 -229.359375 149.980469 -226.660156 148.289062 -235.441406 C 102.6875 -241.523438 59.113281 -240.507812 20.605469 -243.210938 Z M 181.058594 -192.542969 C 180.042969 -140.859375 163.828125 -97.285156 175.652344 -51.007812 C 177.339844 -102.351562 182.746094 -156.398438 181.058594 -192.542969 Z M 181.058594 -192.542969 "/></g></g></g></g></g></g></g></g></svg>