<svg xmlns="http://www.w3.org/2000/svg" xmlns:xlink="http://www.w3.org/1999/xlink" width="529" zoomAndPan="magnify" viewBox="0 0 396.75 396.749985" height="529" preserveAspectRatio="xMidYMid meet" version="1.0"><defs><g/><clipPath id="0b66c52511"><path d="M 0.738281 0.824219 L 183.023438 0.824219 L 183.023438 339.007812 L 0.738281 339.007812 Z M 0.738281 0.824219 " clip-rule="nonzero"/></clipPath><clipPath id="9f0b96190f"><rect x="0" width="184" y="0" height="340"/></clipPath><clipPath id="4073e71e41"><rect x="0" width="184" y="0" height="340"/></clipPath></defs><g transform="matrix(1, 0, 0, 1, 100, 27)"><g clip-path="url(#4073e71e41)"><g clip-path="url(#0b66c52511)"><g transform="matrix(1, 0, 0, 1, -0.000000000000014211, 0)"><g clip-path="url(#9f0b96190f)"><g fill="#000000" fill-opacity="1"><g transform="translate(0.858029, 254.378699)"><g><path d="M 157.75 -227.671875 C 113.835938 -230.035156 62.828125 -226.660156 10.472656 -224.96875 C 3.039062 -185.109375 11.148438 -144.238281 14.523438 -102.6875 C 17.902344 -60.128906 18.578125 -17.226562 20.941406 26.011719 C 70.597656 31.414062 120.929688 39.183594 171.597656 41.210938 C 168.21875 -35.46875 164.167969 -114.847656 160.453125 -195.242188 C 160.113281 -206.054688 161.464844 -217.539062 157.75 -227.671875 Z M 86.136719 -90.867188 C 83.433594 -82.082031 85.800781 -72.289062 85.800781 -62.828125 C 76.679688 -61.140625 67.558594 -60.800781 59.453125 -61.140625 C 59.113281 -67.222656 58.101562 -75.664062 58.101562 -82.082031 C 58.777344 -99.648438 67.894531 -109.78125 74.988281 -122.28125 C 77.355469 -125.660156 80.394531 -129.710938 82.082031 -133.765625 C 85.125 -142.546875 86.136719 -157.410156 82.421875 -169.910156 C 78.707031 -180.382812 63.167969 -187.8125 54.046875 -177.003906 C 50.667969 -170.246094 49.992188 -163.492188 50.332031 -154.035156 C 40.535156 -153.359375 34.453125 -151.667969 24.320312 -152.34375 C 21.957031 -184.433594 36.480469 -206.730469 62.492188 -209.769531 C 98.636719 -213.148438 114.847656 -183.082031 111.132812 -142.210938 C 109.78125 -125.660156 99.988281 -113.835938 93.230469 -102.6875 C 90.867188 -98.636719 87.488281 -94.582031 86.136719 -90.867188 Z M 58.777344 -37.496094 C 68.570312 -39.183594 78.707031 -39.183594 89.515625 -40.199219 C 89.851562 -28.375 91.203125 -18.578125 91.203125 -5.40625 C 82.421875 -4.390625 71.273438 -3.378906 60.464844 -3.378906 C 59.113281 -14.1875 58.777344 -26.347656 58.777344 -37.496094 Z M 124.644531 -91.878906 C 124.308594 -88.839844 124.644531 -86.136719 123.632812 -81.40625 C 123.632812 -81.070312 123.632812 -77.691406 123.292969 -79.71875 C 123.96875 -83.097656 122.957031 -88.839844 124.644531 -91.878906 Z M 122.957031 -69.246094 C 122.28125 -70.261719 123.292969 -72.964844 122.957031 -74.3125 C 123.96875 -73.300781 122.957031 -70.9375 122.957031 -69.246094 Z M 120.929688 -38.847656 C 121.265625 -39.183594 121.941406 -39.859375 121.605469 -39.183594 C 121.265625 -22.632812 121.941406 -2.703125 119.917969 15.539062 C 119.242188 7.769531 120.253906 -2.027344 120.59375 -11.484375 C 121.265625 -21.28125 121.265625 -31.078125 120.929688 -38.847656 Z M 44.925781 13.511719 C 52.359375 11.484375 63.503906 12.835938 72.289062 15.539062 C 61.140625 14.863281 54.722656 13.511719 44.925781 13.511719 Z M 44.925781 13.511719 "/></g></g></g></g></g></g></g></g></svg>